<svg xmlns="http://www.w3.org/2000/svg" viewBox="0 0 400 400" fill="none" stroke="#7B1E2B" stroke-width="1">
  <g opacity="0.9">
    <circle cx="200" cy="200" r="180"/>
    <circle cx="200" cy="200" r="140"/>
    <circle cx="200" cy="200" r="100"/>
    <circle cx="200" cy="200" r="60"/>
    <circle cx="200" cy="200" r="20"/>
  </g>
  <g transform="translate(200 200)">
    <g id="petal">
      <path d="M0 -180 Q 14 -120 0 -60 Q -14 -120 0 -180 Z"/>
    </g>
    <use href="#petal" transform="rotate(30)"/>
    <use href="#petal" transform="rotate(60)"/>
    <use href="#petal" transform="rotate(90)"/>
    <use href="#petal" transform="rotate(120)"/>
    <use href="#petal" transform="rotate(150)"/>
    <use href="#petal" transform="rotate(180)"/>
    <use href="#petal" transform="rotate(210)"/>
    <use href="#petal" transform="rotate(240)"/>
    <use href="#petal" transform="rotate(270)"/>
    <use href="#petal" transform="rotate(300)"/>
    <use href="#petal" transform="rotate(330)"/>
  </g>
  <g transform="translate(200 200)" stroke="#D4AF37">
    <g id="dot-ring">
      <circle cx="0" cy="-160" r="2" fill="#D4AF37"/>
    </g>
    <use href="#dot-ring" transform="rotate(15)"/>
    <use href="#dot-ring" transform="rotate(30)"/>
    <use href="#dot-ring" transform="rotate(45)"/>
    <use href="#dot-ring" transform="rotate(60)"/>
    <use href="#dot-ring" transform="rotate(75)"/>
    <use href="#dot-ring" transform="rotate(90)"/>
    <use href="#dot-ring" transform="rotate(105)"/>
    <use href="#dot-ring" transform="rotate(120)"/>
    <use href="#dot-ring" transform="rotate(135)"/>
    <use href="#dot-ring" transform="rotate(150)"/>
    <use href="#dot-ring" transform="rotate(165)"/>
    <use href="#dot-ring" transform="rotate(180)"/>
    <use href="#dot-ring" transform="rotate(195)"/>
    <use href="#dot-ring" transform="rotate(210)"/>
    <use href="#dot-ring" transform="rotate(225)"/>
    <use href="#dot-ring" transform="rotate(240)"/>
    <use href="#dot-ring" transform="rotate(255)"/>
    <use href="#dot-ring" transform="rotate(270)"/>
    <use href="#dot-ring" transform="rotate(285)"/>
    <use href="#dot-ring" transform="rotate(300)"/>
    <use href="#dot-ring" transform="rotate(315)"/>
    <use href="#dot-ring" transform="rotate(330)"/>
    <use href="#dot-ring" transform="rotate(345)"/>
  </g>
</svg>
